<?xml version="1.0" encoding="UTF-8" standalone="no"?>
<svg width="440px" height="380px" viewBox="0 0 440 380" version="1.1" xmlns="http://www.w3.org/2000/svg" xmlns:xlink="http://www.w3.org/1999/xlink" xmlns:sketch="http://www.bohemiancoding.com/sketch/ns">
    <!-- Generator: Sketch 3.2.2 (9983) - http://www.bohemiancoding.com/sketch -->
    <title>Radio</title>
    <desc>Created with Sketch.</desc>
    <defs></defs>
    <g id="Page-1" stroke="none" stroke-width="1" fill="none" fill-rule="evenodd" sketch:type="MSPage">
        <path d="M333.8,88.1 C262.1,65 190.4,41.8 118.3,18.6 C120.2,12.6 122.1,6.6 124.2,0.2 C139,5 153.7,9.6 168.3,14.4 C244.1,38.9 320,63.4 395.8,87.9 C398.3,88.7 400.9,89.5 403.5,90.1 C425.7,95.4 439.4,111.9 439.5,134.9 C439.7,201.4 439.7,267.9 439.5,334.3 C439.4,361.2 419.9,379.9 393.1,379.9 L47.2,379.9 C20.6,379.9 0.9,361.4 0.7,334.9 C0.4,268.1 0.4,201.3 0.7,134.5 C0.8,107.7 20.3,89.3 47.6,89.3 L328,89.3 L333.9,89.3 C333.8,88.8 333.8,88.4 333.8,88.1 L333.8,88.1 Z M335.3,315 C379.7,315 415.8,279.1 416,234.8 C416.1,190.3 379.7,153.9 335.4,154 C291.1,154.1 255,190.3 255,234.5 C255,278.8 291.1,315 335.3,315 L335.3,315 Z M129.9,166 L181.8,166 C193.3,166 204.8,166.1 216.3,166 C223.2,165.9 228,161.5 228.2,155.1 C228.5,148.4 224.5,143.7 217.7,142.8 C215.6,142.5 213.4,142.5 211.2,142.5 L128.8,142.5 L45.9,142.5 C37,142.5 31.9,147.1 32,154.6 C32.1,161.8 37.1,166 45.9,166 L129.9,166 L129.9,166 Z M130.1,206.2 L216,206.2 C224.4,206.2 229.8,199.6 228,191.7 C226.7,186.2 222,183 214.6,183 L45.3,183 C37.1,183 32,187.6 32.1,194.7 C32.2,202 37,206.3 45.3,206.3 C73.5,206.2 101.8,206.2 130.1,206.2 L130.1,206.2 Z M129.7,246 L188.1,246 C197.4,246 206.7,246.1 216.1,246 C223.1,245.9 227.9,241.5 228.2,235.3 C228.6,228.2 224.3,223.5 216.9,222.7 C215.3,222.5 213.6,222.5 211.9,222.5 L48.1,222.5 C45.9,222.5 43.5,222.1 41.7,223 C38.6,224.6 35,226.5 33.4,229.2 C28.9,237 34.8,245.9 44.3,245.9 C72.7,246 101.2,246 129.7,246 L129.7,246 Z M130,286.2 L203,286.2 C207.8,286.2 212.7,286.4 217.5,286.1 C223.8,285.7 228.2,280.8 228.2,274.5 C228.2,268.4 224.1,263.7 217.9,263 C216.1,262.8 214.2,262.8 212.4,262.8 L47.4,262.8 C45.7,262.8 44.1,262.8 42.4,262.9 C35.8,263.6 31.3,269.1 32,275.7 C32.7,282.1 37.5,286.1 45,286.1 C73.3,286.2 101.7,286.2 130,286.2 L130,286.2 Z M130.1,326 L213,326 C214.7,326 216.3,326.1 218,325.9 C224.1,325.1 228.3,320.4 228.2,314.4 C228.1,308.2 224.2,303.7 218,302.9 C216,302.6 214,302.6 212,302.6 L47.7,302.6 C45.7,302.6 43.4,302.2 41.8,303 C38.7,304.6 35,306.4 33.4,309.2 C28.7,317.2 34.8,326 44.7,326.1 C73.1,326 101.6,326 130.1,326 Z M335.4,299.2 C299.8,299.2 270.9,270.3 270.9,234.8 C270.8,198.9 299.5,170 335.4,169.9 C371.2,169.8 400.2,198.6 400.2,234.6 C400.2,270.3 371.2,299.2 335.4,299.2 Z" id="Radio" fill="#FFFFFF" sketch:type="MSShapeGroup"></path>
    </g>
</svg>